<svg width="12" height="20" viewBox="0 0 12 20" fill="none" xmlns="http://www.w3.org/2000/svg">
<path fill-rule="evenodd" clip-rule="evenodd" d="M11.6303 5.98158C11.6303 4.02568 10.9145 2.51766 9.80691 1.50214C8.70768 0.494325 7.25406 -4.98631e-07 5.81513 0C4.37619 4.36303e-07 2.92257 0.494327 1.82335 1.50215C0.715723 2.51767 0 4.02568 0 5.98158H1.04571C1.04571 4.29833 1.65305 3.07698 2.53003 2.27292C3.41541 1.46117 4.60793 1.04571 5.81513 1.04571C7.02233 1.04571 8.21485 1.46117 9.10022 2.27292C9.9772 3.07698 10.5845 4.29833 10.5845 5.98158C10.5845 6.92072 10.3163 7.48086 9.93358 7.9236C9.63095 8.27368 9.27052 8.5443 8.84173 8.86624L8.84172 8.86625C8.66983 8.9953 8.48696 9.1326 8.29243 9.28658C7.6408 9.80234 6.95364 10.4454 6.43856 11.4594C5.92519 12.47 5.60358 13.807 5.60358 15.686H6.64929C6.64929 13.9258 6.95031 12.7609 7.37087 11.933C7.78972 11.1084 8.3478 10.5764 8.94141 10.1065C9.08336 9.99417 9.23429 9.88093 9.38881 9.765L9.38887 9.76496L9.38888 9.76495C9.84983 9.41911 10.3427 9.04928 10.7247 8.60746C11.2759 7.96982 11.6303 7.16528 11.6303 5.98158ZM6.33794 18.8452C6.33794 18.8072 6.37724 18.7361 6.47662 18.7361C6.576 18.7361 6.6153 18.8072 6.6153 18.8452C6.6153 18.8832 6.576 18.9543 6.47662 18.9543C6.37724 18.9543 6.33794 18.8832 6.33794 18.8452ZM6.47662 17.6904C5.84529 17.6904 5.29223 18.1851 5.29223 18.8452C5.29223 19.5052 5.84529 20 6.47662 20C7.10795 20 7.66101 19.5052 7.66101 18.8452C7.66101 18.1851 7.10795 17.6904 6.47662 17.6904Z" fill="#757575"/>
</svg>
