<svg width="17" height="19" viewBox="0 0 17 19" fill="none" xmlns="http://www.w3.org/2000/svg">
<path d="M11.4072 15.0385V15.7308C11.4072 16.4652 11.1009 17.1696 10.5558 17.6889C10.0107 18.2082 9.27143 18.5 8.50054 18.5C7.72966 18.5 6.99035 18.2082 6.44525 17.6889C5.90015 17.1696 5.59392 16.4652 5.59392 15.7308V15.0385M16.2976 13.6292C15.1313 12.2692 14.3079 11.5769 14.3079 7.82764C14.3079 4.39423 12.4676 3.17101 10.953 2.57692C10.7518 2.49817 10.5624 2.31731 10.5011 2.12043C10.2354 1.25894 9.49061 0.5 8.50054 0.5C7.51047 0.5 6.7652 1.25938 6.50224 2.1213C6.44093 2.32034 6.25154 2.49817 6.05035 2.57692C4.53391 3.17188 2.69547 4.39077 2.69547 7.82764C2.69319 11.5769 1.8698 12.2692 0.703518 13.6292C0.220291 14.1925 0.643569 15.0385 1.48876 15.0385H15.5169C16.3575 15.0385 16.7781 14.19 16.2976 13.6292Z" stroke="#757575" stroke-linecap="round" stroke-linejoin="round"/>
</svg>
