<svg width="11" height="21" viewBox="0 0 11 21" fill="none" xmlns="http://www.w3.org/2000/svg">
<path d="M10.8536 0.853553C11.0488 0.658291 11.0488 0.341709 10.8536 0.146447C10.6583 -0.0488155 10.3417 -0.0488155 10.1464 0.146447L10.8536 0.853553ZM0.5 10.5L0.146447 10.1464C0.0526784 10.2402 0 10.3674 0 10.5C0 10.6326 0.0526784 10.7598 0.146447 10.8536L0.5 10.5ZM10.1464 20.8536C10.3417 21.0488 10.6583 21.0488 10.8536 20.8536C11.0488 20.6583 11.0488 20.3417 10.8536 20.1464L10.1464 20.8536ZM10.1464 0.146447L0.146447 10.1464L0.853553 10.8536L10.8536 0.853553L10.1464 0.146447ZM0.146447 10.8536L10.1464 20.8536L10.8536 20.1464L0.853553 10.1464L0.146447 10.8536Z" fill="#FFB300"/>
</svg>
