<svg width="20" height="20" viewBox="0 0 20 20" fill="none" xmlns="http://www.w3.org/2000/svg">
<path fill-rule="evenodd" clip-rule="evenodd" d="M12.1429 0.4453L13.5492 2.5547C13.7346 2.8329 14.0469 3 14.3812 3H17.3109C17.6452 3 17.9574 3.1671 18.1429 3.4453L19.5241 5.51714C19.7232 5.81573 19.747 6.19808 19.5865 6.51906L18.0697 9.55279C17.9289 9.83431 17.9289 10.1657 18.0697 10.4472L19.5865 13.4809C19.747 13.8019 19.7232 14.1843 19.5241 14.4829L18.1429 16.5547C17.9574 16.8329 17.6452 17 17.3109 17H14.3812C14.0469 17 13.7346 17.1671 13.5492 17.4453L12.1429 19.5547C11.9574 19.8329 11.6452 20 11.3109 20H8.38123C8.04688 20 7.73465 19.8329 7.54918 19.5547L6.14291 17.4453C5.95745 17.1671 5.64522 17 5.31086 17H2.38123C2.04688 17 1.73465 16.8329 1.54918 16.5547L0.167952 14.4829C-0.031106 14.1843 -0.0549105 13.8019 0.105575 13.4809L1.62244 10.4472C1.7632 10.1657 1.7632 9.83431 1.62244 9.55279L0.105575 6.51906C-0.0549106 6.19808 -0.0311059 5.81573 0.167952 5.51714L1.54918 3.4453C1.73465 3.1671 2.04688 3 2.38123 3H5.31086C5.64522 3 5.95745 2.8329 6.14291 2.5547L7.54918 0.4453C7.73465 0.167101 8.04688 0 8.38123 0H11.3109C11.6452 0 11.9574 0.167101 12.1429 0.4453ZM11.346 10C11.346 10.8284 10.6745 11.5 9.84605 11.5C9.01762 11.5 8.34605 10.8284 8.34605 10C8.34605 9.17157 9.01762 8.5 9.84605 8.5C10.6745 8.5 11.346 9.17157 11.346 10ZM12.846 10C12.846 11.6569 11.5029 13 9.84605 13C8.18919 13 6.84605 11.6569 6.84605 10C6.84605 8.34315 8.18919 7 9.84605 7C11.5029 7 12.846 8.34315 12.846 10Z" fill="#FFB300"/>
</svg>
