<svg width="11" height="21" viewBox="0 0 11 21" fill="none" xmlns="http://www.w3.org/2000/svg">
<path d="M0.146446 0.853553C-0.0488157 0.658291 -0.0488157 0.341709 0.146446 0.146447C0.341708 -0.0488155 0.658291 -0.0488155 0.853553 0.146447L0.146446 0.853553ZM10.5 10.5L10.8536 10.1464C10.9473 10.2402 11 10.3674 11 10.5C11 10.6326 10.9473 10.7598 10.8536 10.8536L10.5 10.5ZM0.853553 20.8536C0.658291 21.0488 0.341708 21.0488 0.146446 20.8536C-0.0488157 20.6583 -0.0488157 20.3417 0.146446 20.1464L0.853553 20.8536ZM0.853553 0.146447L10.8536 10.1464L10.1464 10.8536L0.146446 0.853553L0.853553 0.146447ZM10.8536 10.8536L0.853553 20.8536L0.146446 20.1464L10.1464 10.1464L10.8536 10.8536Z" fill="#FFB300"/>
</svg>
