<svg width="20" height="20" viewBox="0 0 20 20" fill="none" xmlns="http://www.w3.org/2000/svg">
<path d="M0.246849 7.30533L19.478 0.0253847C19.5474 -0.00115516 19.6229 -0.00703497 19.6956 0.00845529C19.7682 0.0239456 19.8348 0.0601433 19.8873 0.112676C19.9399 0.165208 19.9761 0.231828 19.9915 0.304487C20.007 0.377147 20.0012 0.452737 19.9746 0.522127L12.6961 19.7571C12.6672 19.8301 12.6165 19.8925 12.5511 19.936C12.4856 19.9794 12.4084 20.0017 12.3298 19.9999C12.2513 19.9981 12.1752 19.9723 12.1117 19.926C12.0483 19.8797 12.0006 19.815 11.975 19.7407L8.73451 11.7539C8.69673 11.6407 8.63315 11.5379 8.54879 11.4535C8.46443 11.3691 8.3616 11.3055 8.24844 11.2677L0.263195 8.02952C0.18797 8.00449 0.122317 7.95682 0.0752214 7.89303C0.0281255 7.82924 0.00188741 7.75246 9.80252e-05 7.67318C-0.00169136 7.59391 0.0210552 7.51601 0.0652251 7.45017C0.109395 7.38432 0.17283 7.33373 0.246849 7.30533ZM19.8088 0.191286L8.60662 11.3956L19.8088 0.191286Z" fill="#FFB300"/>
</svg>
