<svg width="24" height="24" viewBox="0 0 24 24" fill="none" xmlns="http://www.w3.org/2000/svg">
<g clip-path="url(#clip0_0_151)">
<path d="M0 12C0 5.37258 5.37258 0 12 0C18.6274 0 24 5.37258 24 12C24 18.6274 18.6274 24 12 24C5.37258 24 0 18.6274 0 12Z" fill="#FFB300"/>
<path d="M19.6096 11.8995L8.51892 11.9006M6.40565 5.73814L19.528 11.6537C19.5754 11.6749 19.6157 11.7094 19.644 11.753C19.6723 11.7966 19.6874 11.8475 19.6874 11.8995C19.6874 11.9515 19.6723 12.0024 19.644 12.046C19.6157 12.0897 19.5754 12.1242 19.5279 12.1454L6.40443 18.0635C6.35394 18.0853 6.29798 18.0912 6.24408 18.0803C6.19018 18.0693 6.14093 18.0422 6.10293 18.0024C6.06494 17.9627 6.04003 17.9122 6.03156 17.8579C6.02309 17.8035 6.03147 17.7479 6.05556 17.6985L8.4049 12.1412C8.44222 12.0665 8.46166 11.9841 8.46166 11.9006C8.46167 11.8171 8.44226 11.7347 8.40495 11.66L6.05528 6.10469C6.03044 6.05506 6.02154 5.99897 6.0298 5.94408C6.03806 5.8892 6.06308 5.8382 6.10143 5.79808C6.13979 5.75795 6.1896 5.73066 6.24405 5.71993C6.29851 5.7092 6.35495 5.71556 6.40565 5.73814V5.73814Z" stroke="white" stroke-linecap="round" stroke-linejoin="round"/>
</g>
<defs>
<clipPath id="clip0_0_151">
<path d="M0 12C0 5.37258 5.37258 0 12 0C18.6274 0 24 5.37258 24 12C24 18.6274 18.6274 24 12 24C5.37258 24 0 18.6274 0 12Z" fill="white"/>
</clipPath>
</defs>
</svg>
