<svg width="171" height="34" viewBox="0 0 171 34" fill="none" xmlns="http://www.w3.org/2000/svg">
<path d="M1.40659 33.6612C1.01857 33.6612 0.679043 33.5319 0.388024 33.2732C0.12934 32.9822 0 32.6427 0 32.2546V1.4551C0 1.06707 0.12934 0.727548 0.388024 0.436529C0.679043 0.145508 1.01857 0 1.40659 0C1.79462 0 2.11797 0.145508 2.37665 0.436529C2.66767 0.727548 2.81319 1.06707 2.81319 1.4551V32.2546C2.81319 32.6427 2.66767 32.9822 2.37665 33.2732C2.11797 33.5319 1.79462 33.6612 1.40659 33.6612ZM16.6749 33.6612C15.1552 33.6612 13.7324 33.3864 12.4067 32.8367C11.1132 32.2546 9.96533 31.4786 8.96293 30.5085C7.96053 29.5061 7.16831 28.3582 6.58627 27.0648C6.03657 25.739 5.76172 24.3163 5.76172 22.7965C5.76172 21.3091 6.03657 19.9025 6.58627 18.5767C7.16831 17.251 7.96053 16.0869 8.96293 15.0845C9.96533 14.0821 11.1132 13.306 12.4067 12.7563C13.7324 12.1743 15.1552 11.8833 16.6749 11.8833C18.1624 11.8833 19.569 12.1743 20.8947 12.7563C22.2205 13.306 23.3845 14.0821 24.3869 15.0845C25.3893 16.0869 26.1654 17.251 26.7151 18.5767C27.2971 19.9025 27.5882 21.3091 27.5882 22.7965C27.5882 24.3163 27.2971 25.739 26.7151 27.0648C26.1654 28.3582 25.3893 29.5061 24.3869 30.5085C23.3845 31.4786 22.2205 32.2546 20.8947 32.8367C19.569 33.3864 18.1624 33.6612 16.6749 33.6612ZM16.6749 14.745C15.5755 14.745 14.5246 14.9552 13.5222 15.3755C12.5522 15.7959 11.6953 16.3779 10.9516 17.1216C10.2402 17.833 9.67431 18.6899 9.25395 19.6923C8.83359 20.6624 8.62341 21.6971 8.62341 22.7965C8.62341 23.8959 8.83359 24.9468 9.25395 25.9492C9.67431 26.9193 10.2402 27.7762 10.9516 28.5199C11.6953 29.2313 12.5522 29.7971 13.5222 30.2175C14.5246 30.6379 15.5755 30.848 16.6749 30.848C17.7743 30.848 18.8091 30.6379 19.7791 30.2175C20.7815 29.7971 21.6384 29.2313 22.3498 28.5199C23.0935 27.7762 23.6756 26.9193 24.0959 25.9492C24.5163 24.9468 24.7265 23.8959 24.7265 22.7965C24.7265 21.6971 24.5163 20.6624 24.0959 19.6923C23.6756 18.6899 23.0935 17.833 22.3498 17.1216C21.6384 16.3779 20.7815 15.7959 19.7791 15.3755C18.8091 14.9552 17.7743 14.745 16.6749 14.745ZM37.582 15.424C36.1269 16.0707 34.9628 17.057 34.0898 18.3827C33.2491 19.6761 32.8287 21.1312 32.8287 22.748C32.8287 24.3648 33.2491 25.836 34.0898 27.1618C34.9628 28.4552 36.1269 29.4253 37.582 30.072C38.6491 30.557 39.7646 30.7995 40.9287 30.7995C42.9335 30.7995 44.6958 30.1205 46.2156 28.7624C46.5389 28.536 46.8623 28.4229 47.1856 28.4229C47.5737 28.4229 47.9294 28.5846 48.2527 28.9079C48.5114 29.1989 48.6246 29.5546 48.5922 29.975C48.5599 30.363 48.3982 30.6864 48.1072 30.945C47.0725 31.8181 45.9407 32.4971 44.712 32.9822C43.4509 33.4349 42.1898 33.6612 40.9287 33.6612C39.409 33.6612 37.9054 33.3379 36.4179 32.6912C34.4131 31.7858 32.8449 30.4438 31.7131 28.6654C30.5814 26.8869 30.0155 24.9145 30.0155 22.748C30.0155 20.5492 30.5814 18.5767 31.7131 16.8306C32.8449 15.0522 34.4131 13.7102 36.4179 12.8048C37.9054 12.1581 39.409 11.8348 40.9287 11.8348C42.1898 11.8348 43.4509 12.0611 44.712 12.5138C45.9407 12.9989 47.0725 13.6779 48.1072 14.551C48.3659 14.7773 48.5276 15.1168 48.5922 15.5695C48.5922 15.9899 48.4791 16.3294 48.2527 16.5881C47.9294 16.9114 47.5737 17.0731 47.1856 17.0731C46.7976 17.0731 46.4743 16.9438 46.2156 16.6851C45.4719 16.0384 44.6473 15.5534 43.7419 15.23C42.8365 14.8743 41.8988 14.6965 40.9287 14.6965C39.7646 14.6965 38.6491 14.939 37.582 15.424ZM67.0438 32.3516C66.2677 32.772 65.4437 33.0953 64.5707 33.3217C63.73 33.548 62.8569 33.6612 61.9515 33.6612C60.4317 33.6612 59.009 33.3864 57.6832 32.8367C56.3898 32.2546 55.2419 31.4624 54.2395 30.46C53.2371 29.4576 52.4449 28.3097 51.8628 27.0163C51.3131 25.6905 51.0383 24.2678 51.0383 22.748C51.0383 21.2606 51.3131 19.854 51.8628 18.5282C52.4449 17.2025 53.2371 16.0384 54.2395 15.036C55.2419 14.0336 56.3898 13.2575 57.6832 12.7078C59.009 12.1258 60.4317 11.8348 61.9515 11.8348C63.4389 11.8348 64.8455 12.1258 66.1707 12.7078C67.4965 13.2575 68.6605 14.0336 69.6629 15.036C70.6653 16.0384 71.4414 17.2025 71.9911 18.5282C72.5731 19.854 72.8642 21.2606 72.8642 22.748V32.2061C72.8642 32.5942 72.7186 32.9337 72.4276 33.2247C72.1689 33.5157 71.8294 33.6612 71.4091 33.6612C71.021 33.6612 70.6815 33.5157 70.3905 33.2247C70.1318 32.9337 70.0025 32.5942 70.0025 32.2061V30.072C69.1941 30.9774 68.2078 31.7373 67.0438 32.3516ZM53.9 22.748C53.9 23.8474 54.1102 24.8983 54.5305 25.9007C54.9509 26.8708 55.5168 27.7277 56.2281 28.4714C56.9718 29.1828 57.8287 29.7486 58.7988 30.169C59.8012 30.5894 60.8521 30.7995 61.9515 30.7995C63.0509 30.7995 64.0857 30.5894 65.0557 30.169C66.0575 29.7486 66.9144 29.1828 67.6258 28.4714C68.3695 27.7277 68.9516 26.8708 69.3719 25.9007C69.7923 24.8983 70.0025 23.8474 70.0025 22.748C70.0025 21.6486 69.7923 20.6139 69.3719 19.6438C68.9516 18.6414 68.3695 17.7845 67.6258 17.0731C66.9144 16.3294 66.0575 15.7474 65.0557 15.327C64.0857 14.9066 63.0509 14.6965 61.9515 14.6965C60.8521 14.6965 59.8012 14.9066 58.7988 15.327C57.8287 15.7474 56.9718 16.3294 56.2281 17.0731C55.5168 17.7845 54.9509 18.6414 54.5305 19.6438C54.1102 20.6139 53.9 21.6486 53.9 22.748ZM77.2872 33.6612C76.8992 33.6612 76.5596 33.5319 76.2686 33.2732C76.0099 32.9822 75.8806 32.6427 75.8806 32.2546V1.4551C75.8806 1.06707 76.0099 0.727548 76.2686 0.436529C76.5596 0.145508 76.8992 0 77.2872 0C77.6752 0 77.9986 0.145508 78.2572 0.436529C78.5483 0.727548 78.6938 1.06707 78.6938 1.4551V32.2546C78.6938 32.6427 78.5483 32.9822 78.2572 33.2732C77.9986 33.5319 77.6752 33.6612 77.2872 33.6612ZM97.5569 15.424C96.1018 16.0707 94.9377 17.057 94.0647 18.3827C93.2239 19.6761 92.8036 21.1312 92.8036 22.748C92.8036 24.3648 93.2239 25.836 94.0647 27.1618C94.9377 28.4552 96.1018 29.4253 97.5569 30.072C98.624 30.557 99.7395 30.7995 100.904 30.7995C102.908 30.7995 104.671 30.1205 106.19 28.7624C106.514 28.536 106.837 28.4229 107.161 28.4229C107.549 28.4229 107.904 28.5846 108.228 28.9079C108.486 29.1989 108.599 29.5546 108.567 29.975C108.535 30.363 108.373 30.6864 108.082 30.945C107.047 31.8181 105.916 32.4971 104.687 32.9822C103.426 33.4349 102.165 33.6612 100.904 33.6612C99.3838 33.6612 97.8803 33.3379 96.3928 32.6912C94.388 31.7858 92.8198 30.4438 91.688 28.6654C90.5563 26.8869 89.9904 24.9145 89.9904 22.748C89.9904 20.5492 90.5563 18.5767 91.688 16.8306C92.8198 15.0522 94.388 13.7102 96.3928 12.8048C97.8803 12.1581 99.3838 11.8348 100.904 11.8348C102.165 11.8348 103.426 12.0611 104.687 12.5138C105.916 12.9989 107.047 13.6779 108.082 14.551C108.341 14.7773 108.502 15.1168 108.567 15.5695C108.567 15.9899 108.454 16.3294 108.228 16.5881C107.904 16.9114 107.549 17.0731 107.161 17.0731C106.772 17.0731 106.449 16.9438 106.19 16.6851C105.447 16.0384 104.622 15.5534 103.717 15.23C102.811 14.8743 101.874 14.6965 100.904 14.6965C99.7395 14.6965 98.624 14.939 97.5569 15.424ZM113.293 33.6612C112.905 33.6612 112.565 33.5319 112.274 33.2732C112.015 32.9822 111.886 32.6427 111.886 32.2546V1.4551C111.886 1.06707 112.015 0.743716 112.274 0.485032C112.565 0.194013 112.905 0.048502 113.293 0.048502C113.681 0.048502 114.02 0.194013 114.311 0.485032C114.602 0.743716 114.748 1.06707 114.748 1.4551V15.424C115.556 14.5186 116.526 13.7587 117.658 13.1444C119.242 12.3036 120.956 11.8833 122.799 11.8833C124.287 11.8833 125.693 12.1743 127.019 12.7563C128.345 13.306 129.493 14.0821 130.463 15.0845C131.465 16.0869 132.241 17.251 132.791 18.5767C133.373 19.9025 133.664 21.3091 133.664 22.7965V32.2546C133.664 32.6427 133.519 32.9822 133.228 33.2732C132.969 33.5319 132.645 33.6612 132.257 33.6612C131.869 33.6612 131.53 33.5319 131.239 33.2732C130.948 32.9822 130.802 32.6427 130.802 32.2546V22.7965C130.802 21.6971 130.592 20.6624 130.172 19.6923C129.751 18.6899 129.169 17.833 128.426 17.1216C127.714 16.3779 126.874 15.7959 125.904 15.3755C124.933 14.9552 123.899 14.745 122.799 14.745C121.668 14.745 120.617 14.9552 119.647 15.3755C118.677 15.7959 117.82 16.3779 117.076 17.1216C116.365 17.833 115.799 18.6899 115.378 19.6923C114.958 20.6624 114.748 21.6971 114.748 22.7965V32.2546C114.748 32.6427 114.602 32.9822 114.311 33.2732C114.02 33.5319 113.681 33.6612 113.293 33.6612ZM152.171 32.3516C151.395 32.772 150.571 33.0953 149.698 33.3217C148.857 33.548 147.984 33.6612 147.079 33.6612C145.559 33.6612 144.136 33.3864 142.81 32.8367C141.517 32.2546 140.369 31.4624 139.367 30.46C138.364 29.4576 137.572 28.3097 136.99 27.0163C136.44 25.6905 136.165 24.2678 136.165 22.748C136.165 21.2606 136.44 19.854 136.99 18.5282C137.572 17.2025 138.364 16.0384 139.367 15.036C140.369 14.0336 141.517 13.2575 142.81 12.7078C144.136 12.1258 145.559 11.8348 147.079 11.8348C148.566 11.8348 149.973 12.1258 151.298 12.7078C152.624 13.2575 153.788 14.0336 154.791 15.036C155.793 16.0384 156.569 17.2025 157.119 18.5282C157.701 19.854 157.992 21.2606 157.992 22.748V32.2061C157.992 32.5942 157.846 32.9337 157.555 33.2247C157.297 33.5157 156.957 33.6612 156.537 33.6612C156.149 33.6612 155.809 33.5157 155.518 33.2247C155.26 32.9337 155.13 32.5942 155.13 32.2061V30.072C154.322 30.9774 153.336 31.7373 152.171 32.3516ZM139.027 22.748C139.027 23.8474 139.237 24.8983 139.658 25.9007C140.078 26.8708 140.644 27.7277 141.355 28.4714C142.099 29.1828 142.956 29.7486 143.926 30.169C144.928 30.5894 145.979 30.7995 147.079 30.7995C148.178 30.7995 149.213 30.5894 150.183 30.169C151.185 29.7486 152.042 29.1828 152.754 28.4714C153.497 27.7277 154.079 26.8708 154.5 25.9007C154.92 24.8983 155.13 23.8474 155.13 22.748C155.13 21.6486 154.92 20.6139 154.5 19.6438C154.079 18.6414 153.497 17.7845 152.754 17.0731C152.042 16.3294 151.185 15.7474 150.183 15.327C149.213 14.9066 148.178 14.6965 147.079 14.6965C145.979 14.6965 144.928 14.9066 143.926 15.327C142.956 15.7474 142.099 16.3294 141.355 17.0731C140.644 17.7845 140.078 18.6414 139.658 19.6438C139.237 20.6139 139.027 21.6486 139.027 22.748ZM163.87 14.6965V22.748C163.87 23.6857 163.999 24.6235 164.258 25.5612C164.517 26.4989 164.872 27.3396 165.325 28.0834C165.681 28.7301 166.198 29.3444 166.877 29.9265C167.556 30.5085 168.445 30.7995 169.545 30.7995C169.965 30.7995 170.305 30.945 170.563 31.2361C170.854 31.4947 171 31.8181 171 32.2061C171 32.6265 170.854 32.9822 170.563 33.2732C170.305 33.5319 169.965 33.6612 169.545 33.6612C168.187 33.6612 166.91 33.2894 165.713 32.5456C164.646 31.8989 163.757 30.9935 163.045 29.8295C162.399 28.8271 161.898 27.7115 161.542 26.4827C161.186 25.2217 161.008 23.9767 161.008 22.748V1.40659C161.008 1.01857 161.154 0.695213 161.445 0.436529C161.736 0.145508 162.075 0 162.463 0C162.851 0 163.175 0.145508 163.433 0.436529C163.724 0.695213 163.87 1.01857 163.87 1.40659V11.8348H169.545C169.965 11.8348 170.305 11.9803 170.563 12.2713C170.854 12.53 171 12.8695 171 13.2899C171 13.6779 170.854 14.0174 170.563 14.3084C170.305 14.5671 169.965 14.6965 169.545 14.6965H163.87Z" fill="#FFC107"/>
</svg>
